# xmcd
#
# Track frame offsets:
#	150
#	18110
#	35013
#	46894
#	70661
#	82873
#	101980
#	114952
#	140345
#	156094
#
# Disc length: 2310 seconds
#
# Revision: 1
# Processed by: cddbd v1.4PL0 Copyright (c) Steve Scherf et al.
# Submitted via: audiograbber 1.81.02
#
DISCID=7409040a
DTITLE=Jake Sampson - 3 Shades of the Blues
DYEAR=1900
DGENRE=Blues
TTITLE0=Going Down Kwik
TTITLE1=Three Shades of the Blues
TTITLE2=Blues Time
TTITLE3=Standing in the Shadows
TTITLE4=Handy Man
TTITLE5=Missin' You
TTITLE6=411 On My Love
TTITLE7=Precious Love
TTITLE8=Loaded Dice
TTITLE9=3 Shades Instrumental
EXTD=
EXTT0=
EXTT1=
EXTT2=
EXTT3=
EXTT4=
EXTT5=
EXTT6=
EXTT7=
EXTT8=
EXTT9=
PLAYORDER=
